<svg width="54" height="40" viewBox="0 0 54 40" fill="none" xmlns="http://www.w3.org/2000/svg">
<path d="M11.25 33.6363V19.9999C11.25 11.2135 18.3015 4.09082 27 4.09082C35.6985 4.09082 42.75 11.2135 42.75 19.9999V33.6363H11.25ZM11.25 22.2726H6.75C5.50736 22.2726 4.5 23.2901 4.5 24.5454V33.6363C4.5 34.8915 5.50736 35.909 6.75 35.909H11.25V22.2726ZM42.75 22.2726H47.25C48.4927 22.2726 49.5 23.2901 49.5 24.5454V33.6363C49.5 34.8915 48.4927 35.909 47.25 35.909H42.75V22.2726Z" stroke="url(#paint0_linear_1_517)" stroke-width="2.5" stroke-linecap="round" stroke-linejoin="round"/>
<path d="M18 29.0909H22.5L24.75 22.2727L29.25 35.9091L31.5 29.0909H36" stroke="url(#paint1_linear_1_517)" stroke-width="2.5" stroke-linecap="round" stroke-linejoin="round"/>
<defs>
<linearGradient id="paint0_linear_1_517" x1="27" y1="4.09082" x2="27" y2="38.1817" gradientUnits="userSpaceOnUse">
<stop stop-color="white"/>
<stop offset="1" stop-color="#7F1CFC"/>
</linearGradient>
<linearGradient id="paint1_linear_1_517" x1="27" y1="22.2727" x2="27" y2="35.9091" gradientUnits="userSpaceOnUse">
<stop stop-color="white"/>
<stop offset="1" stop-color="#FF1C60"/>
</linearGradient>
</defs>
</svg>
